<mxfile host="app.diagrams.net" agent="Mozilla/5.0 (Windows NT 10.0; Win64; x64) AppleWebKit/537.36 (KHTML, like Gecko) Chrome/138.0.0.0 Safari/537.36" version="27.1.6">
  <diagram name="PÃ¡gina-1" id="KIykR4SoNyDxX0Fitn3e">
    <mxGraphModel dx="1588" dy="1091" grid="0" gridSize="10" guides="1" tooltips="1" connect="1" arrows="1" fold="1" page="0" pageScale="1" pageWidth="827" pageHeight="1169" math="0" shadow="0">
      <root>
        <mxCell id="0" />
        <mxCell id="1" parent="0" />
        <mxCell id="GaOMr9KMU__DFX2v0V4_-27" value="docker-network" style="swimlane;whiteSpace=wrap;html=1;" vertex="1" parent="1">
          <mxGeometry x="112" y="-195" width="484" height="457" as="geometry">
            <mxRectangle x="200" y="1" width="147" height="26" as="alternateBounds" />
          </mxGeometry>
        </mxCell>
        <mxCell id="GaOMr9KMU__DFX2v0V4_-25" value="imagenes-paquetes-microservice" style="swimlane;whiteSpace=wrap;html=1;" vertex="1" parent="GaOMr9KMU__DFX2v0V4_-27">
          <mxGeometry x="52.5" y="346" width="193" height="94" as="geometry">
            <mxRectangle x="200" y="1" width="147" height="26" as="alternateBounds" />
          </mxGeometry>
        </mxCell>
        <mxCell id="GaOMr9KMU__DFX2v0V4_-26" value="img-paq-api-1" style="image;sketch=0;aspect=fixed;html=1;points=[];align=center;fontSize=12;image=img/lib/mscae/Docker.svg;" vertex="1" parent="GaOMr9KMU__DFX2v0V4_-25">
          <mxGeometry x="70" y="28" width="50" height="41" as="geometry" />
        </mxCell>
        <mxCell id="GaOMr9KMU__DFX2v0V4_-23" value="paquetes-microservice" style="swimlane;whiteSpace=wrap;html=1;" vertex="1" parent="GaOMr9KMU__DFX2v0V4_-27">
          <mxGeometry x="81" y="180" width="136" height="94" as="geometry">
            <mxRectangle x="200" y="1" width="147" height="26" as="alternateBounds" />
          </mxGeometry>
        </mxCell>
        <mxCell id="GaOMr9KMU__DFX2v0V4_-24" value="paquetes-api-1" style="image;sketch=0;aspect=fixed;html=1;points=[];align=center;fontSize=12;image=img/lib/mscae/Docker.svg;" vertex="1" parent="GaOMr9KMU__DFX2v0V4_-23">
          <mxGeometry x="43" y="26" width="50" height="41" as="geometry" />
        </mxCell>
        <mxCell id="GaOMr9KMU__DFX2v0V4_-29" value="" style="endArrow=classic;html=1;rounded=0;fontSize=12;startSize=8;endSize=8;curved=1;" edge="1" parent="GaOMr9KMU__DFX2v0V4_-27" source="GaOMr9KMU__DFX2v0V4_-25" target="GaOMr9KMU__DFX2v0V4_-23">
          <mxGeometry width="50" height="50" relative="1" as="geometry">
            <mxPoint x="429" y="297" as="sourcePoint" />
            <mxPoint x="64" y="219" as="targetPoint" />
          </mxGeometry>
        </mxCell>
        <mxCell id="GaOMr9KMU__DFX2v0V4_-30" value="HTTP/REST" style="edgeLabel;html=1;align=center;verticalAlign=middle;resizable=0;points=[];fontSize=12;" vertex="1" connectable="0" parent="GaOMr9KMU__DFX2v0V4_-29">
          <mxGeometry x="0.2114" y="-1" relative="1" as="geometry">
            <mxPoint as="offset" />
          </mxGeometry>
        </mxCell>
        <mxCell id="GaOMr9KMU__DFX2v0V4_-1" value="clientes-microservice" style="swimlane;whiteSpace=wrap;html=1;" vertex="1" parent="GaOMr9KMU__DFX2v0V4_-27">
          <mxGeometry x="85.5" y="33" width="127" height="95" as="geometry">
            <mxRectangle x="200" y="1" width="147" height="26" as="alternateBounds" />
          </mxGeometry>
        </mxCell>
        <mxCell id="GaOMr9KMU__DFX2v0V4_-22" value="clientes-api-1" style="image;sketch=0;aspect=fixed;html=1;points=[];align=center;fontSize=12;image=img/lib/mscae/Docker.svg;" vertex="1" parent="GaOMr9KMU__DFX2v0V4_-1">
          <mxGeometry x="38.5" y="27" width="50" height="41" as="geometry" />
        </mxCell>
        <mxCell id="GaOMr9KMU__DFX2v0V4_-31" value="sqlserver" style="swimlane;whiteSpace=wrap;html=1;" vertex="1" parent="GaOMr9KMU__DFX2v0V4_-27">
          <mxGeometry x="335" y="104" width="128" height="239" as="geometry">
            <mxRectangle x="200" y="1" width="147" height="26" as="alternateBounds" />
          </mxGeometry>
        </mxCell>
        <mxCell id="GaOMr9KMU__DFX2v0V4_-34" value="ClientesDb" style="image;aspect=fixed;html=1;points=[];align=center;fontSize=12;image=img/lib/azure2/databases/SQL_Server.svg;" vertex="1" parent="GaOMr9KMU__DFX2v0V4_-31">
          <mxGeometry x="47.5" y="44" width="33" height="33" as="geometry" />
        </mxCell>
        <mxCell id="GaOMr9KMU__DFX2v0V4_-35" value="PaquetesDb" style="image;aspect=fixed;html=1;points=[];align=center;fontSize=12;image=img/lib/azure2/databases/SQL_Server.svg;" vertex="1" parent="GaOMr9KMU__DFX2v0V4_-31">
          <mxGeometry x="47.5" y="109" width="33" height="33" as="geometry" />
        </mxCell>
        <mxCell id="GaOMr9KMU__DFX2v0V4_-36" value="PaquetesImagenesDb" style="image;aspect=fixed;html=1;points=[];align=center;fontSize=12;image=img/lib/azure2/databases/SQL_Server.svg;" vertex="1" parent="GaOMr9KMU__DFX2v0V4_-31">
          <mxGeometry x="47.5" y="169" width="33" height="33" as="geometry" />
        </mxCell>
        <mxCell id="GaOMr9KMU__DFX2v0V4_-37" value="" style="endArrow=classic;html=1;rounded=0;fontSize=12;startSize=8;endSize=8;curved=1;" edge="1" parent="GaOMr9KMU__DFX2v0V4_-27" source="GaOMr9KMU__DFX2v0V4_-1" target="GaOMr9KMU__DFX2v0V4_-34">
          <mxGeometry width="50" height="50" relative="1" as="geometry">
            <mxPoint x="209" y="270" as="sourcePoint" />
            <mxPoint x="256" y="148" as="targetPoint" />
          </mxGeometry>
        </mxCell>
        <mxCell id="GaOMr9KMU__DFX2v0V4_-40" value="TCP/IP" style="edgeLabel;html=1;align=center;verticalAlign=middle;resizable=0;points=[];fontSize=12;" vertex="1" connectable="0" parent="GaOMr9KMU__DFX2v0V4_-37">
          <mxGeometry x="0.0104" relative="1" as="geometry">
            <mxPoint as="offset" />
          </mxGeometry>
        </mxCell>
        <mxCell id="GaOMr9KMU__DFX2v0V4_-38" value="" style="endArrow=classic;html=1;rounded=0;fontSize=12;startSize=8;endSize=8;curved=1;" edge="1" parent="GaOMr9KMU__DFX2v0V4_-27" source="GaOMr9KMU__DFX2v0V4_-23" target="GaOMr9KMU__DFX2v0V4_-35">
          <mxGeometry width="50" height="50" relative="1" as="geometry">
            <mxPoint x="209" y="270" as="sourcePoint" />
            <mxPoint x="309" y="242" as="targetPoint" />
          </mxGeometry>
        </mxCell>
        <mxCell id="GaOMr9KMU__DFX2v0V4_-41" value="TCP/IP" style="edgeLabel;html=1;align=center;verticalAlign=middle;resizable=0;points=[];fontSize=12;" vertex="1" connectable="0" parent="GaOMr9KMU__DFX2v0V4_-38">
          <mxGeometry x="-0.1634" y="-1" relative="1" as="geometry">
            <mxPoint as="offset" />
          </mxGeometry>
        </mxCell>
        <mxCell id="GaOMr9KMU__DFX2v0V4_-39" value="" style="endArrow=classic;html=1;rounded=0;fontSize=12;startSize=8;endSize=8;curved=1;" edge="1" parent="GaOMr9KMU__DFX2v0V4_-27" source="GaOMr9KMU__DFX2v0V4_-25" target="GaOMr9KMU__DFX2v0V4_-36">
          <mxGeometry width="50" height="50" relative="1" as="geometry">
            <mxPoint x="209" y="270" as="sourcePoint" />
            <mxPoint x="259" y="220" as="targetPoint" />
          </mxGeometry>
        </mxCell>
        <mxCell id="GaOMr9KMU__DFX2v0V4_-42" value="TCP/IP" style="edgeLabel;html=1;align=center;verticalAlign=middle;resizable=0;points=[];fontSize=12;" vertex="1" connectable="0" parent="GaOMr9KMU__DFX2v0V4_-39">
          <mxGeometry x="-0.1658" relative="1" as="geometry">
            <mxPoint as="offset" />
          </mxGeometry>
        </mxCell>
        <mxCell id="GaOMr9KMU__DFX2v0V4_-43" value="client" style="sketch=0;outlineConnect=0;fontColor=#232F3E;gradientColor=none;fillColor=#232F3D;strokeColor=none;dashed=0;verticalLabelPosition=bottom;verticalAlign=top;align=center;html=1;fontSize=12;fontStyle=0;aspect=fixed;pointerEvents=1;shape=mxgraph.aws4.client;" vertex="1" parent="1">
          <mxGeometry x="-108" y="-6" width="59.53" height="58" as="geometry" />
        </mxCell>
        <mxCell id="GaOMr9KMU__DFX2v0V4_-44" value="" style="endArrow=classic;startArrow=classic;html=1;rounded=0;fontSize=12;startSize=8;endSize=8;curved=1;" edge="1" parent="1" source="GaOMr9KMU__DFX2v0V4_-43" target="GaOMr9KMU__DFX2v0V4_-1">
          <mxGeometry width="50" height="50" relative="1" as="geometry">
            <mxPoint x="173" y="49" as="sourcePoint" />
            <mxPoint x="223" y="-1" as="targetPoint" />
          </mxGeometry>
        </mxCell>
        <mxCell id="GaOMr9KMU__DFX2v0V4_-45" value="HTTP/REST" style="edgeLabel;html=1;align=center;verticalAlign=middle;resizable=0;points=[];fontSize=12;" vertex="1" connectable="0" parent="GaOMr9KMU__DFX2v0V4_-44">
          <mxGeometry x="-0.1818" y="1" relative="1" as="geometry">
            <mxPoint as="offset" />
          </mxGeometry>
        </mxCell>
        <mxCell id="GaOMr9KMU__DFX2v0V4_-46" value="" style="endArrow=classic;startArrow=classic;html=1;rounded=0;fontSize=12;startSize=8;endSize=8;curved=1;" edge="1" parent="1" source="GaOMr9KMU__DFX2v0V4_-43" target="GaOMr9KMU__DFX2v0V4_-23">
          <mxGeometry width="50" height="50" relative="1" as="geometry">
            <mxPoint x="-4" y="190" as="sourcePoint" />
            <mxPoint x="332" y="78" as="targetPoint" />
          </mxGeometry>
        </mxCell>
        <mxCell id="GaOMr9KMU__DFX2v0V4_-47" value="HTTP/REST" style="edgeLabel;html=1;align=center;verticalAlign=middle;resizable=0;points=[];fontSize=12;" vertex="1" connectable="0" parent="GaOMr9KMU__DFX2v0V4_-46">
          <mxGeometry x="-0.1818" y="1" relative="1" as="geometry">
            <mxPoint as="offset" />
          </mxGeometry>
        </mxCell>
        <mxCell id="GaOMr9KMU__DFX2v0V4_-48" value="" style="endArrow=classic;startArrow=classic;html=1;rounded=0;fontSize=12;startSize=8;endSize=8;curved=1;" edge="1" parent="1" source="GaOMr9KMU__DFX2v0V4_-43" target="GaOMr9KMU__DFX2v0V4_-25">
          <mxGeometry width="50" height="50" relative="1" as="geometry">
            <mxPoint x="31" y="212" as="sourcePoint" />
            <mxPoint x="367" y="100" as="targetPoint" />
          </mxGeometry>
        </mxCell>
        <mxCell id="GaOMr9KMU__DFX2v0V4_-49" value="HTTP/REST" style="edgeLabel;html=1;align=center;verticalAlign=middle;resizable=0;points=[];fontSize=12;" vertex="1" connectable="0" parent="GaOMr9KMU__DFX2v0V4_-48">
          <mxGeometry x="-0.1818" y="1" relative="1" as="geometry">
            <mxPoint as="offset" />
          </mxGeometry>
        </mxCell>
      </root>
    </mxGraphModel>
  </diagram>
</mxfile>
